<?xml version="1.0" encoding="UTF-8" standalone="no"?>
<!-- Created with Inkscape (http://www.inkscape.org/) -->

<svg
   width="208"
   height="112"
   viewBox="0 0 208 112"
   version="1.1"
   id="svg1"
   xmlns="http://www.w3.org/2000/svg"
   xmlns:svg="http://www.w3.org/2000/svg">
  <defs
     id="defs1" />
  <g
     id="layer1"
     transform="translate(-16.823255,-31.980855)">
    <g
       id="g1">
      <rect
         style="fill:#ffffff;fill-opacity:1;stroke:#000000;stroke-width:0;stroke-linecap:round;stroke-linejoin:round;stroke-dasharray:none;stroke-opacity:1;paint-order:stroke fill markers"
         id="rect4"
         width="208"
         height="112"
         x="16.823256"
         y="31.980854"
         ry="18.910854"
         rx="0" />
      <path
         style="fill:none;stroke:#0165ff;stroke-width:4.37817;stroke-linecap:round;stroke-linejoin:round;stroke-dasharray:none;stroke-opacity:1;paint-order:stroke fill markers"
         d="M 59.721788,106.29239 50.821805,74.511309 67.13844,83.780795 83.455074,74.511309 74.555091,106.29239"
         id="path6" />
      <path
         style="fill:#000000;stroke:#000000;stroke-width:3.97339;stroke-linecap:round;stroke-linejoin:round;stroke-dasharray:none;stroke-opacity:1;paint-order:stroke fill markers"
         d="M 54.58494,115.37106 H 79.372887"
         id="path4" />
      <path
         style="fill:#000000;stroke:#000000;stroke-width:3.97339;stroke-linecap:round;stroke-linejoin:round;stroke-dasharray:none;stroke-opacity:1;paint-order:stroke fill markers"
         d="M 58.303131,123.02926 H 75.654695"
         id="path4-1" />
      <path
         style="fill:none;stroke:#000000;stroke-width:3.97339;stroke-linecap:round;stroke-linejoin:round;stroke-dasharray:none;stroke-opacity:1;paint-order:stroke fill markers"
         d="M 53.704473,53.919231 H 81.026922 L 99.942867,74.292872 81.026922,106.95369 H 53.704473 L 34.792632,74.292872 Z"
         id="path7-6-3" />
      <path
         style="font-size:21.3333px;font-family:'FiraCode Nerd Font Propo';-inkscape-font-specification:'FiraCode Nerd Font Propo';white-space:pre;fill:#0165ff;stroke-width:1.70992;stroke-linecap:round;stroke-linejoin:round;paint-order:stroke fill markers"
         d="m 90.447847,37.747134 q 0,0.700169 0.229743,1.017434 0.229743,0.317264 0.71111,0.459486 l -0.448546,1.290938 q -0.743931,-0.09846 -1.301879,-0.470426 -0.557947,-0.382906 -0.809571,-1.148716 -0.623589,0.798631 -1.564442,1.214357 -0.929913,0.404785 -2.045809,0.404785 -1.728544,0 -2.724098,-0.973673 -0.995554,-0.973674 -0.995554,-2.581877 0,-1.783245 1.3894,-2.735038 1.389399,-0.951793 4.015036,-0.951793 h 1.695724 v -0.962734 q 0,-1.247177 -0.732991,-1.761365 -0.72205,-0.525127 -2.012988,-0.525127 -0.568888,0 -1.334699,0.142222 -0.76581,0.131282 -1.662903,0.448546 l -0.481367,-1.389399 q 1.050255,-0.393846 1.980168,-0.557948 0.940853,-0.164102 1.783245,-0.164102 2.14427,0 3.227346,1.006494 1.083075,1.006494 1.083075,2.713158 z m -4.758967,1.367519 q 0.853332,0 1.619143,-0.426666 0.776751,-0.437606 1.290938,-1.203417 v -2.964782 h -1.662904 q -1.903586,0 -2.691277,0.656409 -0.776751,0.65641 -0.776751,1.761365 0,2.177091 2.220851,2.177091 z m 18.78425,0.568888 q -0.59077,0.393845 -1.43316,0.612648 -0.84239,0.218803 -1.65196,0.218803 -1.859826,0 -2.86632,-0.973673 -1.006495,-0.973674 -1.006495,-2.505295 v -6.870417 h -2.647517 v -1.42222 h 2.647517 V 26.12869 l 1.837946,-0.218803 v 2.8335 h 3.982219 l -0.21881,1.42222 h -3.763409 v 6.848536 q 0,0.962734 0.503247,1.465981 0.514192,0.503247 1.695722,0.503247 0.64547,0 1.19248,-0.153162 0.54701,-0.153162 1.01743,-0.393846 z m 5.82017,-15.753822 v 6.38905 q 0.67829,-0.897092 1.66291,-1.356579 0.99555,-0.459486 2.01299,-0.459486 1.68478,0 2.46153,0.897092 0.77675,0.897093 0.77675,2.494355 v 8.369218 h -1.83794 v -8.325457 q 0,-1.039315 -0.48137,-1.509741 -0.48137,-0.481367 -1.50974,-0.481367 -0.65641,0 -1.24718,0.295384 -0.59077,0.295384 -1.06119,0.73299 -0.47043,0.437607 -0.77676,0.897093 v 8.391098 h -1.83794 V 24.126642 Z m 15.65537,-0.579828 q 0.61265,0 0.97368,0.371966 0.37196,0.371965 0.37196,0.908032 0,0.557948 -0.37196,0.940854 -0.36103,0.371965 -0.97368,0.371965 -0.57982,0 -0.95179,-0.371965 -0.37196,-0.382906 -0.37196,-0.940854 0,-0.536067 0.37196,-0.908032 0.37197,-0.371966 0.95179,-0.371966 z m 1.46599,5.393496 v 10.064941 h 3.24922 v 1.455041 h -8.64272 v -1.455041 h 3.55555 v -8.6099 h -3.44615 v -1.455041 z m 11.21366,10.250924 q 1.3347,0 2.10051,-0.492307 0.76581,-0.492307 0.76581,-1.334699 0,-0.514187 -0.19692,-0.897092 -0.18598,-0.382906 -0.77675,-0.68923 -0.59077,-0.317264 -1.81607,-0.623589 -1.19247,-0.295384 -2.07863,-0.678289 -0.87521,-0.393846 -1.36752,-1.017434 -0.48136,-0.623589 -0.48136,-1.619143 0,-1.455041 1.21435,-2.297432 1.21436,-0.842392 3.16171,-0.842392 1.3894,0 2.41777,0.371965 1.03932,0.371965 1.76137,0.897093 l -0.80957,1.247177 q -0.64547,-0.448546 -1.4441,-0.73299 -0.7877,-0.295384 -1.90359,-0.295384 -1.35658,0 -1.92547,0.426666 -0.56889,0.415725 -0.56889,1.083075 0,0.514187 0.27351,0.853332 0.28444,0.328204 0.95179,0.590768 0.66735,0.262564 1.83795,0.579828 1.12683,0.306325 1.96922,0.72205 0.8424,0.415726 1.30188,1.094016 0.47043,0.667349 0.47043,1.739484 0,1.225297 -0.70017,1.991108 -0.70017,0.754871 -1.81607,1.104956 -1.10495,0.339144 -2.34119,0.339144 -1.56444,0 -2.6694,-0.448546 -1.09401,-0.459486 -1.83794,-1.104955 l 1.05025,-1.214357 q 0.67829,0.557947 1.5535,0.908032 0.88616,0.339145 1.90359,0.339145 z m 13.57674,-15.64442 q 0.61265,0 0.97367,0.371966 0.37197,0.371965 0.37197,0.908032 0,0.557948 -0.37197,0.940854 -0.36102,0.371965 -0.97367,0.371965 -0.57983,0 -0.95179,-0.371965 -0.37197,-0.382906 -0.37197,-0.940854 0,-0.536067 0.37197,-0.908032 0.37196,-0.371966 0.95179,-0.371966 z m 1.46598,5.393496 v 10.064941 h 3.24923 v 1.455041 h -8.64272 v -1.455041 h 3.55555 v -8.6099 h -3.44615 v -1.455041 z"
         id="text1"
         transform="matrix(1.4294418,0,0,1.5582772,-13.507087,40.446804)"
         aria-label="athisi&#10;" />
    </g>
  </g>
</svg>
